<?xml version="1.0" encoding="utf-8"?>
<!-- Generator: Adobe Illustrator 22.1.0, SVG Export Plug-In . SVG Version: 6.00 Build 0)  -->
<svg version="1.1" id="Layer_1" xmlns="http://www.w3.org/2000/svg" xmlns:xlink="http://www.w3.org/1999/xlink" x="0px" y="0px"
	 viewBox="0 0 52 52" style="enable-background:new 0 0 52 52;" xml:space="preserve">
<style type="text/css">
	.st0{fill:none;stroke:#4D4D4D;stroke-miterlimit:10;}
	.st1{fill:#4D4D4D;}
	.st2{fill-rule:evenodd;clip-rule:evenodd;fill:#4D4D4D;}
	.st3{fill:none;stroke:#FFFFFF;stroke-miterlimit:10;}
	.st4{fill:none;stroke:#2E3192;stroke-miterlimit:10;}
	.st5{fill:none;stroke:#C1272D;stroke-miterlimit:10;}
	.st6{fill:none;stroke:#006837;stroke-miterlimit:10;}
	.st7{fill:#FFFFFF;}
	.st8{fill-rule:evenodd;clip-rule:evenodd;fill:#FFFFFF;}
</style>
<g>
	<g>
		<path class="st0" d="M-102.1-3392.6h-6.4c0-5.6-4.3-10.2-9.6-10.2s-9.6,4.6-9.6,10.2h-6.4l-8,39.5h23.9l0,0h23.9L-102.1-3392.6z
			 M-126.1-3385.5c-1.1,0-2-0.9-2-2s0.9-2,2-2s2,0.9,2,2S-125-3385.5-126.1-3385.5z M-125.6-3392.6c0-4.4,3.4-8,7.6-8
			c4.2,0,7.6,3.6,7.6,8h-7.6H-125.6z M-109.9-3385.5c-1.1,0-2-0.9-2-2s0.9-2,2-2s2,0.9,2,2S-108.8-3385.5-109.9-3385.5z"/>
	</g>
	<g>
		<circle class="st0" cx="-109.5" cy="-3661.5" r="13.8"/>
		<line class="st0" x1="-120.2" y1="-3652.8" x2="-140.3" y2="-3632.7"/>
	</g>
	<g>
		<circle class="st0" cx="-118" cy="-3574.2" r="11.4"/>
		<path class="st0" d="M-138.5-3538.3c0-13.5,9.2-24.5,20.5-24.5s20.5,11,20.5,24.5"/>
	</g>
	<g>
		<rect x="-137.6" y="-3493.8" class="st0" width="39.1" height="47.6"/>
		<line class="st0" x1="-131.5" y1="-3484.2" x2="-104.5" y2="-3484.2"/>
		<line class="st0" x1="-131.5" y1="-3477.1" x2="-104.5" y2="-3477.1"/>
		<line class="st0" x1="-131.5" y1="-3470" x2="-104.5" y2="-3470"/>
		<line class="st0" x1="-131.5" y1="-3462.9" x2="-104.5" y2="-3462.9"/>
		<line class="st0" x1="-131.5" y1="-3455.8" x2="-104.5" y2="-3455.8"/>
	</g>
	<g>
		<path class="st0" d="M-96.2-3295.7c0-6.6-5.3-11.9-11.9-11.9c-4.1,0-7.7,2.1-9.9,5.2c-2.1-3.2-5.8-5.2-9.9-5.2
			c-6.6,0-11.9,5.3-11.9,11.9c0,0-1.7,10.1,21.6,31.3C-118.2-3264.4-95.4-3283.4-96.2-3295.7z"/>
	</g>
	<g>
		<g>
			<line class="st0" x1="-95" y1="-3194" x2="-126" y2="-3194"/>
			<polyline class="st0" points="-102.6,-3201.6 -95,-3194 -102.6,-3186.4 			"/>
		</g>
		<polyline class="st0" points="-113.8,-3183.9 -113.8,-3171.2 -141.1,-3171.2 -141.1,-3216.8 -113.8,-3216.8 -113.8,-3204.1 		"/>
	</g>
	<g>
		<line class="st0" x1="-140.9" y1="-3124.9" x2="-95.1" y2="-3079.1"/>
		<line class="st0" x1="-140.9" y1="-3079.1" x2="-95.1" y2="-3124.9"/>
	</g>
	<g>
		<line class="st0" x1="-118" y1="-2481.8" x2="-118" y2="-2434.2"/>
		<line class="st0" x1="-141.8" y1="-2458" x2="-94.2" y2="-2458"/>
	</g>
	<line class="st0" x1="-141.8" y1="-2366" x2="-94.2" y2="-2366"/>
	<polyline class="st0" points="-129,-3031.9 -107.1,-3010 -129,-2988.1 	"/>
	<polyline class="st0" points="-107,-2896.1 -128.9,-2918 -107,-2939.9 	"/>
	<g>
		<polyline class="st0" points="-113.9,-2528.1 -135.8,-2550 -113.9,-2571.9 		"/>
		<polyline class="st0" points="-100.1,-2528.1 -122,-2550 -100.1,-2571.9 		"/>
	</g>
	<polyline class="st0" points="-139.9,-2815 -118,-2836.9 -96.1,-2815 	"/>
	<polyline class="st0" points="-96.1,-2745 -118,-2723.1 -139.9,-2745 	"/>
	<g>
		<polyline class="st0" points="-104.1,-2651.5 -94.6,-2642 -104.1,-2632.5 		"/>
		<line class="st0" x1="-141.7" y1="-2642" x2="-94.6" y2="-2642"/>
	</g>
	<g>
		
			<rect x="-117.2" y="-2286.6" transform="matrix(0.7071 -0.7071 0.7071 0.7071 1584.114 -745.0396)" class="st0" width="19.8" height="3.8"/>
		
			<rect x="-100.9" y="-2294.9" transform="matrix(0.7071 -0.7071 0.7071 0.7071 1592.4226 -741.5981)" class="st0" width="3.8" height="3.8"/>
		<polyline class="st0" points="-112.9,-2276.4 -116.4,-2275.6 -115.6,-2279.1 		"/>
		<polyline class="st0" points="-113.1,-2276.3 -116.6,-2275.4 -115.7,-2278.9 		"/>
		<polyline class="st0" points="-107.8,-2275.6 -107.8,-2252.2 -107.8,-2252.1 -139.9,-2252.1 -139.9,-2284.2 -116.5,-2284.2 		"/>
	</g>
	<g>
		<g>
			<path class="st0" d="M-118-2158L-118-2158c-13.3,0-24-10.8-24-24l0,0c0-13.3,10.8-24,24-24h0c13.3,0,24,10.8,24,24l0,0
				C-94-2168.7-104.7-2158-118-2158z"/>
		</g>
	</g>
	<g>
		<g>
			<path class="st1" d="M-112.2-2195h-11.7c-4,0-7.2,3.2-7.2,7.2v11.7c0,4,3.2,7.2,7.2,7.2h11.7c4,0,7.2-3.2,7.2-7.2v-11.7
				C-105-2191.8-108.2-2195-112.2-2195z M-107.1-2176.2c0,2.8-2.3,5.1-5.1,5.1h-11.6c-2.8,0-5.1-2.3-5.1-5.1v-11.6
				c0-2.8,2.3-5.1,5.1-5.1h11.6c2.8,0,5.1,2.3,5.1,5.1V-2176.2z"/>
			<path class="st1" d="M-118-2188.8c-3.8,0-6.8,3.1-6.8,6.9c0,3.8,3.1,6.8,6.8,6.8c3.8,0,6.8-3.1,6.8-6.8
				C-111.2-2185.7-114.2-2188.8-118-2188.8z M-118-2177.5c-2.5,0-4.5-2-4.5-4.5s2-4.5,4.5-4.5c2.5,0,4.5,2,4.5,4.5
				S-115.5-2177.5-118-2177.5z"/>
			<path class="st1" d="M-109.4-2189c0,0.8-0.7,1.5-1.5,1.5c-0.8,0-1.5-0.7-1.5-1.5c0-0.8,0.7-1.5,1.5-1.5
				C-110.1-2190.6-109.4-2189.9-109.4-2189z"/>
		</g>
	</g>
	<g>
		<g>
			<path class="st0" d="M-118-2066L-118-2066c-13.3,0-24-10.8-24-24v0c0-13.3,10.8-24,24-24h0c13.3,0,24,10.8,24,24l0,0
				C-94-2076.7-104.7-2066-118-2066z"/>
		</g>
	</g>
	<g>
		<g>
			<g>
				<g>
					<path class="st2" d="M-105.6-2094.6c0-2.1-1.7-3.8-3.8-3.8h-17.6c-2.1,0-3.8,1.7-3.8,3.8v10.1c0,2.1,1.7,3.8,3.8,3.8h17.6
						c2.1,0,3.8-1.7,3.8-3.8V-2094.6z M-120.6-2085.3v-9.4l7.2,4.7L-120.6-2085.3z M-120.6-2085.3"/>
				</g>
			</g>
		</g>
	</g>
	<g>
		<g>
			<path class="st0" d="M-118-1974L-118-1974c-13.3,0-24-10.8-24-24l0,0c0-13.3,10.8-24,24-24h0c13.3,0,24,10.8,24,24l0,0
				C-94-1984.7-104.7-1974-118-1974z"/>
		</g>
	</g>
	<g>
		<g>
			<g>
				<path class="st1" d="M-116.3-1991.5c-1.6-0.1-2.3-0.9-3.6-1.7c-0.7,3.7-1.5,7.2-4.1,9c-0.8-5.5,1.1-9.7,2-14.1
					c-1.5-2.6,0.2-7.7,3.4-6.5c4,1.6-3.4,9.5,1.5,10.5c5.2,1,7.3-9,4.1-12.2c-4.6-4.7-13.5-0.1-12.4,6.6c0.3,1.6,2,2.1,0.7,4.4
					c-3-0.7-3.8-3-3.7-6.1c0.2-5.1,4.6-8.7,9-9.2c5.6-0.6,10.8,2,11.5,7.3C-107-1997.5-110.3-1991-116.3-1991.5L-116.3-1991.5z
					 M-116.3-1991.5"/>
			</g>
		</g>
	</g>
</g>
<g>
	<path class="st3" d="M-102.1-1644.6h-6.4c0-5.6-4.3-10.2-9.6-10.2s-9.6,4.6-9.6,10.2h-6.4l-8,39.5h23.9v0h23.9L-102.1-1644.6z
		 M-126.1-1637.5c-1.1,0-2-0.9-2-2s0.9-2,2-2s2,0.9,2,2S-125-1637.5-126.1-1637.5z M-125.6-1644.6c0-4.4,3.4-8,7.6-8
		c4.2,0,7.6,3.6,7.6,8h-7.6H-125.6z M-109.9-1637.5c-1.1,0-2-0.9-2-2s0.9-2,2-2s2,0.9,2,2S-108.8-1637.5-109.9-1637.5z"/>
</g>
<g>
	<circle class="st3" cx="-109.6" cy="-1913.4" r="13.8"/>
	<line class="st3" x1="-120.3" y1="-1904.7" x2="-140.4" y2="-1884.6"/>
</g>
<g>
	<circle class="st3" cx="-118" cy="-1826" r="11.4"/>
	<path class="st3" d="M-138.5-1790.1c0-13.5,9.2-24.5,20.5-24.5s20.5,11,20.5,24.5"/>
</g>
<g>
	<rect x="-137.6" y="-1745.8" class="st3" width="39.1" height="47.6"/>
	<line class="st3" x1="-131.5" y1="-1736.2" x2="-104.5" y2="-1736.2"/>
	<line class="st3" x1="-131.5" y1="-1729.1" x2="-104.5" y2="-1729.1"/>
	<line class="st3" x1="-131.5" y1="-1722" x2="-104.5" y2="-1722"/>
	<line class="st3" x1="-131.5" y1="-1714.9" x2="-104.5" y2="-1714.9"/>
	<line class="st3" x1="-131.5" y1="-1707.8" x2="-104.5" y2="-1707.8"/>
</g>
<g>
	<path class="st3" d="M-96.2-1547.8c0-6.6-5.3-11.9-11.9-11.9c-4.1,0-7.7,2.1-9.9,5.2c-2.1-3.2-5.8-5.2-9.9-5.2
		c-6.6,0-11.9,5.3-11.9,11.9c0,0-1.7,10.1,21.6,31.3C-118.2-1516.4-95.4-1535.5-96.2-1547.8z"/>
</g>
<g>
	<g>
		<line class="st3" x1="-95" y1="-1446" x2="-126" y2="-1446"/>
		<polyline class="st3" points="-102.7,-1453.6 -95,-1446 -102.7,-1438.4 		"/>
	</g>
	<polyline class="st3" points="-113.9,-1435.9 -113.9,-1423.2 -141.2,-1423.2 -141.2,-1468.8 -113.9,-1468.8 -113.9,-1456.1 	"/>
</g>
<g>
	<line class="st3" x1="-140.9" y1="-1376.9" x2="-95.1" y2="-1331.1"/>
	<line class="st3" x1="-140.9" y1="-1331.1" x2="-95.1" y2="-1376.9"/>
</g>
<g>
	<line class="st3" x1="-118" y1="-733.8" x2="-118" y2="-686.2"/>
	<line class="st3" x1="-141.8" y1="-710" x2="-94.2" y2="-710"/>
</g>
<line class="st3" x1="-141.8" y1="-618" x2="-94.2" y2="-618"/>
<polyline class="st3" points="-129.1,-1283.9 -107.2,-1262 -129.1,-1240.1 "/>
<polyline class="st3" points="-106.9,-1148.1 -128.8,-1170 -106.9,-1191.9 "/>
<g>
	<polyline class="st3" points="-113.8,-780.1 -135.7,-802 -113.8,-823.9 	"/>
	<polyline class="st3" points="-100,-780.1 -121.9,-802 -100,-823.9 	"/>
</g>
<polyline class="st3" points="-139.9,-1066.9 -118,-1088.8 -96.1,-1066.9 "/>
<polyline class="st3" points="-96.1,-997.1 -118,-975.2 -139.9,-997.1 "/>
<g>
	<polyline class="st4" points="-104.3,-167.5 -94.8,-158 -104.3,-148.5 	"/>
	<line class="st4" x1="-141.9" y1="-158" x2="-94.8" y2="-158"/>
</g>
<g>
	<polyline class="st5" points="-104.3,16.5 -94.8,26 -104.3,35.5 	"/>
	<line class="st5" x1="-141.9" y1="26" x2="-94.8" y2="26"/>
</g>
<g>
	<polyline class="st6" points="-104.3,-75.5 -94.8,-66 -104.3,-56.5 	"/>
	<line class="st6" x1="-141.9" y1="-66" x2="-94.8" y2="-66"/>
</g>
<g>
	
		<rect x="-117.2" y="-538.6" transform="matrix(0.7071 -0.7071 0.7071 0.7071 348.0914 -233.0623)" class="st3" width="19.8" height="3.8"/>
	
		<rect x="-100.9" y="-546.9" transform="matrix(0.7071 -0.7071 0.7071 0.7071 356.3999 -229.6208)" class="st3" width="3.8" height="3.8"/>
	<polyline class="st3" points="-112.9,-528.4 -116.4,-527.6 -115.6,-531.1 	"/>
	<polyline class="st3" points="-113.1,-528.3 -116.6,-527.4 -115.7,-530.9 	"/>
	<polyline class="st3" points="-107.8,-527.6 -107.8,-504.2 -107.8,-504.1 -139.9,-504.1 -139.9,-536.2 -116.5,-536.2 	"/>
</g>
<g>
	<g>
		<path class="st3" d="M-118-410L-118-410c-13.3,0-24-10.8-24-24v0c0-13.3,10.8-24,24-24h0c13.3,0,24,10.8,24,24v0
			C-94-420.7-104.7-410-118-410z"/>
	</g>
</g>
<g>
	<g>
		<path class="st7" d="M-112.2-447h-11.7c-4,0-7.2,3.2-7.2,7.2v11.7c0,4,3.2,7.2,7.2,7.2h11.7c4,0,7.2-3.2,7.2-7.2v-11.7
			C-105-443.8-108.2-447-112.2-447z M-107.1-428.2c0,2.8-2.3,5.1-5.1,5.1h-11.6c-2.8,0-5.1-2.3-5.1-5.1v-11.6c0-2.8,2.3-5.1,5.1-5.1
			h11.6c2.8,0,5.1,2.3,5.1,5.1V-428.2z"/>
		<path class="st7" d="M-118-440.8c-3.8,0-6.8,3.1-6.8,6.9c0,3.8,3.1,6.8,6.8,6.8c3.8,0,6.8-3.1,6.8-6.8
			C-111.2-437.7-114.2-440.8-118-440.8z M-118-429.5c-2.5,0-4.5-2-4.5-4.5c0-2.5,2-4.5,4.5-4.5c2.5,0,4.5,2,4.5,4.5
			C-113.5-431.5-115.5-429.5-118-429.5z"/>
		<path class="st7" d="M-109.4-441c0,0.8-0.7,1.5-1.5,1.5c-0.8,0-1.5-0.7-1.5-1.5c0-0.8,0.7-1.5,1.5-1.5
			C-110.1-442.6-109.4-441.9-109.4-441z"/>
	</g>
</g>
<g>
	<g>
		<path class="st3" d="M-118-318L-118-318c-13.3,0-24-10.8-24-24v0c0-13.3,10.8-24,24-24h0c13.3,0,24,10.8,24,24l0,0
			C-94-328.7-104.7-318-118-318z"/>
	</g>
</g>
<g>
	<g>
		<g>
			<g>
				<path class="st8" d="M-105.6-346.6c0-2.1-1.7-3.8-3.8-3.8h-17.6c-2.1,0-3.8,1.7-3.8,3.8v10.1c0,2.1,1.7,3.8,3.8,3.8h17.6
					c2.1,0,3.8-1.7,3.8-3.8V-346.6z M-120.6-337.3v-9.4l7.2,4.7L-120.6-337.3z M-120.6-337.3"/>
			</g>
		</g>
	</g>
</g>
<g>
	<g>
		<path class="st3" d="M-118-226L-118-226c-13.3,0-24-10.8-24-24v0c0-13.3,10.8-24,24-24h0c13.3,0,24,10.8,24,24v0
			C-94-236.7-104.7-226-118-226z"/>
	</g>
</g>
<g>
	<g>
		<g>
			<path class="st7" d="M-116.3-243.5c-1.6-0.1-2.3-0.9-3.6-1.7c-0.7,3.7-1.5,7.2-4.1,9c-0.8-5.5,1.1-9.7,2-14.1
				c-1.5-2.6,0.2-7.7,3.4-6.5c4,1.6-3.4,9.5,1.5,10.5c5.2,1,7.3-9,4.1-12.2c-4.6-4.7-13.5-0.1-12.4,6.6c0.3,1.6,2,2.1,0.7,4.4
				c-3-0.7-3.8-3-3.7-6.1c0.2-5.1,4.6-8.7,9-9.2c5.6-0.6,10.8,2,11.5,7.3C-107-249.5-110.3-243-116.3-243.5L-116.3-243.5z
				 M-116.3-243.5"/>
		</g>
	</g>
</g>
<line class="st3" x1="-68.8" y1="3.8" x2="-23.2" y2="3.8"/>
<line class="st3" x1="-68.8" y1="26" x2="-23.2" y2="26"/>
<line class="st3" x1="-68.8" y1="48.2" x2="-23.2" y2="48.2"/>
<line class="st0" x1="3.2" y1="3.8" x2="48.8" y2="3.8"/>
<line class="st0" x1="3.2" y1="26" x2="48.8" y2="26"/>
<line class="st0" x1="3.2" y1="48.2" x2="48.8" y2="48.2"/>
</svg>
